<svg xmlns="http://www.w3.org/2000/svg" xmlns:xlink="http://www.w3.org/1999/xlink" width="30" height="34" viewBox="0 0 30 34"><defs><path id="7op9a" d="M815.28 2774.03a15.6 15.6 0 0 1-13.47 7.78 15.6 15.6 0 0 1-13.46-7.78.82.82 0 0 1 0-.82 15.52 15.52 0 0 1 8.8-7.06c.29-.09.6-.01.82.2l.21.2.05.04a30.26 30.26 0 0 0 3.6 2.76 24.2 24.2 0 0 0 3.56-2.75l.05-.05.2-.2c.22-.21.54-.29.84-.2a15.52 15.52 0 0 1 8.8 7.06c.14.25.14.57 0 .82zm-24-.74c.7-1.34 1.5-2.53 2.38-3.55a13.89 13.89 0 0 0-3.64 3.88c.2.32.43.63.65.94.2-.44.4-.86.61-1.27zm20.96 2.13c-.22-.53-.46-1.06-.72-1.56-1.37-2.66-3.12-4.7-5.1-5.96a25.87 25.87 0 0 1-4.11 3.1v1.48a.5.5 0 0 1-1 0v-1.5a34 34 0 0 1-4.11-3.08 15.05 15.05 0 0 0-5.04 5.84c-.28.54-.54 1.1-.78 1.69 2.5 2.84 6.1 4.57 9.94 4.71v-5.46a.5.5 0 0 1 .99 0v5.46a13.94 13.94 0 0 0 9.93-4.72zm1.36-1.8a13.9 13.9 0 0 0-3.63-3.88 19.12 19.12 0 0 1 2.98 4.82c.23-.3.45-.62.65-.94zm-18.31-13.7v-3.25a6.53 6.53 0 0 1 13.05 0v3.25a6.53 6.53 0 0 1-13.05 0zm1.65 0a4.88 4.88 0 0 0 9.75 0v-3.25a4.88 4.88 0 0 0-9.75 0zm12.76 13.73v1.53c0 .54-.44.99-.99.99h-.5v.5c0 .55-.45 1-1 1h-1.52a.99.99 0 0 1-1-1v-.5h-.5a.99.99 0 0 1-1-1v-1.52c0-.54.45-.99 1-.99h.5v-.5a.99.99 0 0 1 1-1h1.52c.55 0 1 .45 1 1v.5h.5c.55 0 1 .45 1 1zm-.99 0h-1.5v-1.5h-1.52v1.5h-1.5v1.53h1.5v1.5h1.52v-1.5h1.5z"/></defs><g><g transform="translate(-787 -2749)"><use fill="#162027" xlink:href="#7op9a"/></g></g></svg>